<?xml version="1.0" standalone="no"?>
<!DOCTYPE svg PUBLIC "-//W3C//DTD SVG 1.1//EN" "http://www.w3.org/Graphics/SVG/1.1/DTD/svg11.dtd" >
<svg xmlns="http://www.w3.org/2000/svg">
<metadata>Generated by IcoMoon</metadata>
<defs>
<font id="ionicons" horiz-adv-x="1024">
<font-face units-per-em="1024" ascent="960" descent="-64" />
<missing-glyph horiz-adv-x="1024" />
<glyph unicode="&#x20;" horiz-adv-x="512" d="" />
<glyph unicode="&#xe900;" glyph-name="matching" d="M917.593 181.545h-366.108c-8.871 43.733-47.522 76.665-93.885 76.665s-85.014-32.932-93.885-76.665h-251.11c-10.576 0-19.166-8.592-19.166-19.168 0-10.592 8.591-19.165 19.166-19.165h251.11c8.872-43.741 47.524-76.702 93.885-76.702 46.363 0 85.014 32.962 93.886 76.702h366.109c10.576 0 19.167 8.573 19.167 19.165 0 10.576-8.592 19.168-19.167 19.168zM457.599 104.88c-31.762 0-57.5 25.736-57.5 57.497 0 31.736 25.738 57.5 57.5 57.5s57.5-25.764 57.5-57.5c0-31.761-25.738-57.497-57.5-57.497zM112.604 718.204h97.778c8.873-43.741 47.524-76.666 93.885-76.666s85.014 32.925 93.885 76.666h519.439c10.576 0 19.167 8.563 19.167 19.166 0 10.575-8.592 19.166-19.167 19.166h-519.438c-8.872 43.714-47.524 76.665-93.885 76.665s-85.013-32.951-93.885-76.665h-97.779c-10.576 0-19.166-8.591-19.166-19.166 0.001-10.603 8.592-19.166 19.166-19.166zM304.268 794.869c31.762 0 57.5-25.763 57.5-57.499 0-31.762-25.737-57.5-57.5-57.5s-57.499 25.738-57.499 57.5c0 31.736 25.738 57.499 57.499 57.499zM917.593 469.012h-59.446c-8.871 43.762-47.523 76.694-93.885 76.694s-85.014-32.932-93.885-76.694h-557.772c-10.576 0-19.166-8.563-19.166-19.138 0-10.604 8.591-19.167 19.166-19.167h557.771c8.872-43.74 47.524-76.665 93.885-76.665s85.014 32.925 93.885 76.665h59.446c10.576 0 19.167 8.563 19.167 19.167 0.001 10.575-8.591 19.138-19.166 19.138zM764.262 392.375c-31.762 0-57.5 25.737-57.5 57.5 0 31.736 25.738 57.5 57.5 57.5s57.499-25.764 57.499-57.5c0-31.762-25.737-57.5-57.499-57.5z" />
<glyph unicode="&#xe901;" glyph-name="traffic" d="M310.401 795.869c-85.175 0-154.216-69.017-154.216-154.173 0-85.154 69.041-154.216 154.216-154.216s154.216 69.063 154.216 154.216c0 85.156-69.040 154.173-154.216 154.173zM310.401 531.844c-60.843 0-110.154 49.355-110.154 110.219s49.312 110.219 110.154 110.219c60.843 0 110.154-49.356 110.154-110.219s-49.312-110.219-110.154-110.219zM733.032 444.107c3.529-2.065 7.403-3.053 11.189-3.053 7.53 0 14.886 3.851 19.018 10.8 6.54 11.144 14.802 22.656 24.548 34.272 7.81 9.316 6.606 23.214-2.711 31.046-9.338 7.83-23.235 6.584-31.003-2.733-11.316-13.446-20.998-27.002-28.807-40.168-6.174-10.477-2.712-23.968 7.766-30.164zM331.743 113c-0.193 12.004-9.983 21.708-22.031 21.708-12.156 0-22.031-9.875-22.031-22.053 0-2.087 0.3-13.296 6.11-29.003 3.272-8.907 11.704-14.393 20.654-14.393 2.54 0 5.143 0.452 7.659 1.399 11.404 4.217 17.212 16.866 13.015 28.314-2.988 8.002-3.333 13.51-3.376 14.027zM552.654 3.663c-15.232 0.775-30.077 2.065-44.063 3.808-12.134 1.786-23.084-7.035-24.591-19.126-1.527-12.092 7.079-23.086 19.127-24.592 15.061-1.871 30.896-3.27 47.203-4.153 0.409 0 0.775 0 1.16 0 11.663 0 21.386 9.122 21.99 20.87 0.645 12.177-8.67 22.548-20.827 23.192zM424.105 26.468c-14.005 5.013-26.741 10.886-37.844 17.405-10.521 6.219-24.010 2.624-30.163-7.832-6.175-10.499-2.646-24.030 7.832-30.163 13.49-7.897 28.7-14.909 45.267-20.89 2.497-0.86 4.969-1.27 7.466-1.27 9.014 0 17.49 5.573 20.717 14.587 4.131 11.424-1.807 24.074-13.274 28.162zM685.528 8.396c-13.984-1.98-28.742-3.486-43.868-4.453-12.155-0.797-21.362-11.296-20.589-23.429 0.774-11.661 10.477-20.611 21.988-20.611 0.472 0 0.947 0.042 1.442 0.042 16.201 1.076 32.12 2.668 47.266 4.82 12.005 1.721 20.396 12.865 18.697 24.914-1.722 12.047-12.846 20.524-24.937 18.718zM860.356 609.661c-12.307-8.82-24.956-18.437-37.521-28.635-9.423-7.702-10.843-21.579-3.163-31.003 4.367-5.357 10.692-8.111 17.104-8.111 4.863 0 9.811 1.592 13.899 4.948 11.832 9.639 23.752 18.675 35.37 27 9.874 7.079 12.177 20.848 5.033 30.724-7.057 9.897-20.804 12.156-30.722 5.077zM863.496 171.047c-11.918-2.475-19.578-14.135-17.104-26.055 1.484-7.121 2.259-14.114 2.259-20.76 0-5.423-0.538-10.843-1.548-16.029-2.303-11.962 5.508-23.515 17.469-25.795 1.398-0.301 2.818-0.409 4.217-0.409 10.327 0 19.534 7.293 21.578 17.835 1.571 7.961 2.346 16.136 2.346 24.399 0 9.638-1.076 19.642-3.163 29.711-2.494 11.941-14.22 19.513-26.053 17.105zM990.216 662.502c-5.593 10.844-18.889 15.082-29.647 9.488 0 0-7.552-3.872-20.051-11.015-10.586-6.002-14.285-19.449-8.261-30.034 4.066-7.122 11.51-11.102 19.192-11.102 3.7 0 7.443 0.925 10.864 2.882 11.338 6.433 18.202 10.005 18.417 10.113 10.801 5.57 15.038 18.845 9.487 29.667zM844.994 244.239c-9.316 12.22-20.052 24.483-31.97 36.552-8.521 8.671-22.462 8.758-31.154 0.237-8.671-8.519-8.756-22.505-0.216-31.175 10.585-10.736 20.138-21.664 28.356-32.379 4.346-5.679 10.887-8.649 17.514-8.649 4.689 0 9.38 1.463 13.361 4.54 9.704 7.423 11.51 21.236 4.11 30.874zM755.063 343.463c-6.326 11.274-10.154 22.978-11.446 34.811-1.292 12.111-11.898 20.847-24.269 19.556-12.091-1.311-20.848-12.134-19.534-24.268 1.935-17.772 7.573-35.157 16.781-51.635 4.044-7.207 11.532-11.274 19.234-11.274 3.658 0 7.359 0.904 10.758 2.817 10.627 5.939 14.413 19.364 8.476 29.992zM804.891 49.145c-10.327-7.186-22.526-13.684-36.144-19.277-11.253-4.648-16.609-17.513-11.962-28.788 3.486-8.496 11.703-13.639 20.353-13.639 2.797 0 5.638 0.537 8.391 1.657 16.524 6.819 31.518 14.866 44.469 23.817 10.005 6.97 12.5 20.696 5.573 30.679s-20.697 12.479-30.679 5.551zM310.401 928.399c-158.175 0-286.401-129.129-286.401-288.401 0-234.335 286.401-460.649 286.401-460.649s286.401 226.313 286.401 460.649c0 159.273-128.226 288.402-286.401 288.402zM310.358 237.268c-26.205 23.385-67.814 62.951-109.315 112.756-60.671 72.741-132.981 182.1-132.981 289.973 0 134.703 108.734 244.34 242.339 244.34s242.339-109.636 242.339-244.34c0-169.447-173.88-341.5-242.382-402.729z" />
<glyph unicode="&#xe902;" glyph-name="share" d="M791.358 637.187c-20.749 0-40.895 4.074-59.878 12.107-18.317 7.752-34.761 18.841-48.876 32.961-14.114 14.118-25.198 30.565-32.946 48.886-8.029 18.984-12.1 39.13-12.1 59.877s4.072 40.893 12.101 59.874c7.749 18.317 18.834 34.761 32.948 48.877s30.559 25.2 48.876 32.948c18.981 8.029 39.126 12.1 59.872 12.1 0.001 0 0 0 0.002 0 20.755 0 40.903-4.071 59.885-12.1 18.319-7.749 34.764-18.835 48.879-32.951 14.113-14.115 25.196-30.56 32.942-48.879 8.025-18.979 12.094-39.123 12.094-59.87s-4.069-40.891-12.093-59.873c-7.745-18.321-18.827-34.77-32.938-48.888-14.115-14.121-30.559-25.212-48.878-32.963-18.984-8.034-39.134-12.106-59.89-12.106zM791.358 882.369c-24.399 0-47.338-9.502-64.594-26.758s-26.759-40.196-26.759-64.594c0-50.389 40.981-91.383 91.352-91.383s91.353 40.995 91.353 91.383c0.001 50.372-40.98 91.352-91.353 91.352zM233.972 295.316c-20.748 0-40.893 4.072-59.874 12.101-18.317 7.748-34.762 18.833-48.876 32.948s-25.201 30.559-32.949 48.877c-8.029 18.981-12.1 39.126-12.1 59.873s4.072 40.892 12.1 59.874c7.748 18.317 18.834 34.762 32.949 48.877s30.559 25.2 48.876 32.949c18.982 8.029 39.125 12.101 59.874 12.101 20.755 0 40.903-4.071 59.886-12.1 18.32-7.748 34.764-18.834 48.878-32.951 14.112-14.115 25.195-30.56 32.941-48.879 8.026-18.979 12.094-39.123 12.094-59.87s-4.069-40.89-12.094-59.869c-7.746-18.319-18.829-34.764-32.941-48.879-14.114-14.116-30.559-25.202-48.878-32.951-18.983-8.029-39.131-12.099-59.886-12.099zM233.972 540.468c-50.373 0-91.353-40.981-91.353-91.353 0-50.371 40.981-91.352 91.353-91.352s91.352 40.981 91.352 91.353c0 50.373-40.981 91.353-91.352 91.353zM791.358-54.333c-20.749 0-40.893 4.072-59.875 12.101-18.318 7.75-34.763 18.837-48.877 32.954s-25.2 30.566-32.948 48.887c-8.029 18.985-12.1 39.135-12.1 59.888 0 20.748 4.072 40.893 12.101 59.874 7.749 18.317 18.834 34.762 32.948 48.877s30.559 25.2 48.876 32.948c18.981 8.029 39.126 12.101 59.874 12.101 20.755 0 40.904-4.072 59.885-12.1 18.32-7.748 34.764-18.835 48.879-32.951 14.113-14.115 25.196-30.56 32.942-48.879 8.025-18.98 12.094-39.123 12.094-59.87 0-20.754-4.068-40.901-12.093-59.885-7.745-18.323-18.828-34.772-32.941-48.889-14.114-14.119-30.559-25.207-48.88-32.956-18.982-8.029-39.13-12.1-59.886-12.1zM791.358 190.851c-50.371 0-91.352-40.981-91.352-91.353 0-50.389 40.981-91.385 91.352-91.385s91.353 40.995 91.353 91.385c0 50.372-40.981 91.353-91.353 91.353zM687.201 131.754c-5.691 0-11.448 1.554-16.617 4.813l-350.044 220.607c-14.589 9.194-18.962 28.474-9.768 43.063s28.474 18.962 43.063 9.768l350.044-220.607c14.589-9.194 18.962-28.473 9.768-43.063-5.936-9.419-16.077-14.58-26.445-14.58zM334.777 485.212c-10.769 0-21.243 5.575-27.036 15.56-8.654 14.916-3.577 34.022 11.338 42.676l353.488 205.086c14.915 8.654 34.021 3.578 42.677-11.338 8.654-14.916 3.577-34.023-11.338-42.676l-353.489-205.086c-4.93-2.861-10.322-4.221-15.639-4.221z" />
<glyph unicode="&#xe903;" glyph-name="nav" d="M132.063 680.175h759.875v-72.31h-759.875v72.31zM132.063 483.905h572.188v-69.56h-572.188v69.56zM132.063 289.396h759.875v-74.572h-759.875v74.572z" />
<glyph unicode="&#xe904;" glyph-name="tips" d="M278.406 204.406l184.354 31.619 496.787 496.788c19.532 19.542 31.64 46.541 31.64 76.378 0 59.652-48.346 107.998-107.997 107.998-29.825 0-56.824-12.096-76.357-31.65l-496.786-496.787-31.64-184.345zM837.375 854.994c11.728 11.728 27.928 18.995 45.815 18.995 35.774 0 64.798-29.035 64.798-64.799 0-17.887-7.257-34.108-18.984-45.835l-27.928-27.905-91.628 91.618 27.926 27.927zM778.905 796.524l91.629-91.618-397.733-397.754v91.65h-91.63l397.734 397.722zM349.070 355.602h80.532v-80.544l-97.197-16.653 16.665 97.197zM969.588 593.196c-11.94 0-21.6-9.682-21.6-21.599v-475.187c0-47.724-38.684-86.398-86.398-86.398h-691.182c-47.713 0-86.398 38.674-86.398 86.398v691.182c0 47.713 38.685 86.397 86.398 86.397h475.188c11.939 0 21.599 9.65 21.599 21.599 0 11.917-9.659 21.599-21.599 21.599h-475.188c-71.591 0-129.596-58.038-129.596-129.596v-691.182c0-71.591 58.007-129.596 129.596-129.596h691.182c71.591 0 129.596 58.006 129.596 129.596v475.187c0 11.918-9.659 21.6-21.599 21.6z" />
<glyph unicode="&#xe905;" glyph-name="tel" d="M985.003 154.078h-0.324c0 18.294-7.422 34.865-19.417 46.861-3.538 3.537-7.508 6.515-11.779 9.168l-187.053 145.478c-11.995 11.995-28.564 19.418-46.86 19.418-14.973 0-28.652-5.178-39.698-13.591l-52.211-52.6-0.129 0.13c-8.091-9.062-19.721-14.843-32.794-14.843-14.951 0-28.090 7.466-36.115 18.813-0.26-0.432-0.648-0.841-0.927-1.294-72.211 52.384-136.181 115.425-188.499 187.722 0.518 0.323 0.971 0.733 1.467 1.057-11.499 8.070-19.072 21.359-19.072 36.505 0 13.505 6.171 25.5 15.685 33.656l-0.065 0.087 51.952 51.521c8.415 11.047 13.549 24.682 13.549 39.697 0 18.296-7.422 34.865-19.416 46.861l-145.481 187.053c-2.654 4.218-5.632 8.241-9.169 11.77-11.996 11.995-28.565 19.428-46.861 19.428-88.37 0-198.833-103.861-198.833-231.972 0-35.49 8.22-68.996 22.439-99.072l-0.734-0.733c132.945-264.722 353.869-485.647 618.592-618.591l0.734 0.732c30.075-14.24 63.559-22.437 99.071-22.437 128.111 0 231.971 110.463 231.971 198.833 0 0.107-0.021 0.215-0.021 0.345zM753.052-0.915c-27.702 0-54.671 6.128-80.149 18.166-2.395 1.122-4.856 2.028-7.357 2.674-251.152 128.111-459.262 336.178-587.416 587.308-0.713 2.567-1.618 5.135-2.784 7.594-12.081 25.502-18.209 52.47-18.209 80.171 0 107.14 93.829 187.786 154.648 187.786 7.94 0 13.204-4.066 15.62-6.483 0.561-0.572 1.554-1.716 2.999-4.056 0.776-1.24 1.639-2.46 2.524-3.623l145.477-187.043c1.123-1.467 2.353-2.805 3.647-4.099 2.416-2.416 6.472-7.68 6.472-15.62 0-3.926-1.078-7.594-3.192-11.003l-49.255-48.845c-0.216-0.258-0.454-0.431-0.67-0.69-17.842-16.784-28.004-40.042-28.004-64.421 0-22.827 8.846-44.575 24.25-60.885 0.56-0.863 1.122-1.726 1.747-2.567 54.304-75.059 121.013-141.51 198.338-197.603 0.605-0.432 1.207-0.863 1.812-1.251 16.355-15.663 38.231-24.681 61.186-24.681 23.064 0 45.307 9.234 61.812 25.457 0.842 0.734 1.683 1.511 2.481 2.33l49.492 49.837c3.452 2.179 7.163 3.279 11.047 3.279 7.939 0 13.204-4.055 15.619-6.472 1.295-1.294 2.677-2.503 4.1-3.667l187.053-145.457c1.208-0.929 2.46-1.79 3.754-2.59 2.33-1.467 3.388-2.418 3.927-2.933 2.417-2.417 6.472-7.659 6.472-15.62 0-1.51 0.087-2.957 0.237-4.444-3.472-60.842-82.889-150.55-187.678-150.55zM962.932 926.972h-309.296c-12.189 0-22.092-9.904-22.092-22.093 0-12.211 9.903-22.093 22.092-22.093h255.964l-359.933-359.952c-4.033-3.992-6.493-9.515-6.493-15.621 0-12.212 9.903-22.092 22.092-22.092 6.085 0 11.608 2.459 15.62 6.472l359.952 359.932v-255.941c0-12.211 9.904-22.092 22.093-22.092s22.092 9.881 22.092 22.092v309.296c0 12.19-9.903 22.093-22.092 22.093z" />
<glyph unicode="&#xe906;" glyph-name="love-full" d="M514.111 14.337c-14.781 0-28.592 5.701-38.899 16.008l-334.496 322.713c-0.464 0.38-128.941 113.78-128.941 255.898 0 168.22 106.557 272.708 278.071 272.708 90.677 0 174.682-61.98 224.264-107.614 49.583 45.634 133.588 107.614 224.264 107.614 171.514 0 278.072-104.488 278.072-272.708 0-123.514-98.365-227.22-128.519-256.065l-335.215-322.841c-10.010-10.010-23.82-15.711-38.601-15.711z" />
<glyph unicode="&#xe907;" glyph-name="home" d="M39.328 450.873c-9.788 0-19.439 4.522-25.637 13.044-10.287 14.144-7.16 33.95 6.985 44.238l475.024 345.476c11.104 8.076 26.148 8.076 37.253 0l475.026-345.476c14.144-10.287 17.272-30.094 6.985-44.238s-30.094-17.272-44.238-6.985l-456.399 331.929-456.397-331.929c-5.623-4.089-12.142-6.058-18.601-6.059zM876.532 36.312h-255.695c-17.49 0-31.668 14.178-31.668 31.668v297.479h-149.651v-297.478c0-17.49-14.178-31.668-31.668-31.668h-255.728c-17.49 0-31.668 14.178-31.668 31.668v496.611c0 17.49 14.178 31.668 31.668 31.668s31.668-14.178 31.668-31.668v-464.942h192.391v297.479c0 17.49 14.178 31.668 31.668 31.668h212.988c17.49 0 31.668-14.178 31.668-31.668v-297.478h192.358v464.942c0 17.49 14.178 31.668 31.668 31.668s31.668-14.178 31.668-31.668v-496.611c0-17.49-14.178-31.668-31.668-31.668z" />
<glyph unicode="&#xe908;" glyph-name="fail" d="M546.155 450.099l289.404 289.404c4.4 4.377 7.098 10.434 7.098 17.13 0 13.369-10.837 24.231-24.228 24.231-6.674 0-12.731-2.72-17.133-7.111l-289.401-289.402-291.655 291.654c-4.377 4.391-10.435 7.111-17.131 7.111-13.393 0-24.23-10.861-24.23-24.231 0-6.696 2.698-12.752 7.099-17.153l291.654-291.632-298.179-298.19c-4.4-4.378-7.099-10.433-7.099-17.118 0-13.405 10.837-24.229 24.23-24.229 6.696 0 12.754 2.708 17.131 7.097l298.18 298.179 301.24-301.242c4.402-4.389 10.458-7.097 17.133-7.097 13.391 0 24.228 10.823 24.228 24.229 0 6.684-2.698 12.74-7.098 17.118l-301.242 301.253z" />
<glyph unicode="&#xe909;" glyph-name="love" d="M514.111 14.337c-14.782 0-28.592 5.701-38.899 16.007l-334.496 322.713c-0.464 0.38-128.941 113.78-128.941 255.898 0 168.22 106.557 272.708 278.071 272.708 90.678 0 174.682-61.98 224.265-107.614 49.583 45.634 133.587 107.614 224.264 107.614 171.514 0 278.072-104.488 278.072-272.708 0-123.514-98.365-227.22-128.519-256.065l-335.215-322.841c-10.010-10.010-23.82-15.711-38.601-15.711zM289.846 838.415c-149.234 0-234.823-83.624-234.823-229.459 0-119.649 113.78-223.040 114.92-224.053l335.574-323.705c3.168-3.168 6.735-3.611 8.594-3.611s5.427 0.443 8.32 3.337l334.539 322.185c28.087 26.883 116.229 119.46 116.229 225.848 0 145.835-85.588 229.459-234.823 229.459-85.271 0-167.586-68.673-209.060-109.641l-15.204-14.994-15.204 14.994c-41.475 40.967-123.79 109.64-209.061 109.64z" />
<glyph unicode="&#xe90a;" glyph-name="system" d="M979.515 549.049l-48.244 12.094c-9.97 37.141-24.701 72.322-43.572 104.823l25.679 42.769c7.878 15.288 13.039 34.225 0 47.266l-94.53 94.541c-5.874 5.897-13.107 8.2-20.606 8.2-9.146 0-18.692-3.46-26.659-8.2l-43.059-25.824c-32.4 18.737-67.449 33.412-104.477 43.326l-12.15 48.645c-5.229 16.39-14.975 33.435-33.424 33.435h-133.694c-18.449 0-29.24-17.046-33.424-33.435l-12.15-48.645c-37.029-9.914-72.077-24.589-104.5-43.326l-43.037 25.825c-7.967 4.739-17.513 8.2-26.659 8.2-7.5 0-14.732-2.303-20.607-8.2l-94.531-94.541c-13.040-13.041-7.877-31.977 0-47.266l25.679-42.769c-18.87-32.501-33.646-67.683-43.571-104.823l-48.245-12.094c-16.378-4.15-33.423-14.954-33.423-33.413v-133.684c0-18.458 17.046-28.195 33.423-33.412l48.245-12.073c9.924-37.162 24.7-72.322 43.571-104.822l-25.68-42.793c-8.611-14.543-13.040-34.202 0-47.264l94.531-94.542c5.742-5.741 12.661-7.955 19.894-7.955 9.168 0 18.826 3.56 27.371 7.955l43.037 25.824c32.423-18.715 67.471-33.412 104.5-43.303l12.15-48.646c4.183-16.388 14.976-33.423 33.424-33.423h133.695c18.448 0 28.195 17.035 33.424 33.423l12.15 48.646c37.029 9.891 72.077 24.588 104.477 43.303l43.059-25.824c8.545-4.395 18.226-7.955 27.371-7.955 7.232 0 14.108 2.214 19.894 7.955l94.53 94.542c13.039 13.062 8.611 32.722 0 47.264l-25.679 42.793c18.87 32.5 33.601 67.659 43.572 104.822l48.244 12.073c16.378 5.217 33.423 14.954 33.423 33.412v133.684c-0.001 18.459-17.047 29.263-33.424 33.413zM967.365 392.523c-0.178-0.067-0.333-0.157-0.533-0.178l-46.62-11.672c-16.067-4.005-28.684-16.433-32.957-32.4-8.789-32.789-21.897-64.311-38.964-93.751-8.345-14.353-8.211-32.101 0.333-46.342l25.101-41.813-79.62-79.621c-0.178 0.067-0.335 0.156-0.49 0.245l-41.635 24.956c-7.233 4.328-15.311 6.498-23.455 6.498-7.833 0-15.711-2.037-22.787-6.109-29.441-17.001-60.861-30.041-93.463-38.765-15.999-4.26-28.438-16.879-32.443-32.968l-11.772-47.031c-0.044-0.168-0.090-0.323-0.156-0.534h-112.6l-11.884 47.587c-4.027 16.066-16.444 28.684-32.444 32.945-32.601 8.724-64.066 21.764-93.529 38.765-7.031 4.072-14.887 6.109-22.743 6.109-8.144 0-16.244-2.169-23.454-6.498l-41.613-24.956c-0.155-0.090-0.311-0.179-0.512-0.245l-79.575 79.621 25.078 41.835c8.546 14.219 8.679 31.967 0.357 46.32-17.090 29.463-30.22 60.984-38.988 93.751-4.273 15.967-16.913 28.395-32.957 32.4l-46.62 11.672c-0.178 0.023-0.355 0.111-0.533 0.178v112.61l47.153 11.76c16.044 4.028 28.685 16.434 32.957 32.445 8.767 32.768 21.897 64.289 38.988 93.752 8.322 14.353 8.188 32.099-0.357 46.319l-24.811 41.391c-0.067 0.156-0.155 0.311-0.244 0.478l79.621 79.609 42.058-25.246c7.21-4.305 15.31-6.476 23.454-6.476 7.855 0 15.711 2.036 22.787 6.108 29.418 17.001 60.884 30.042 93.485 38.742 16 4.284 28.416 16.901 32.444 32.968l11.884 47.566h112.6c0.067-0.189 0.111-0.345 0.156-0.511l11.772-47.054c4.005-16.067 16.444-28.683 32.443-32.968 32.601-8.701 64.023-21.741 93.463-38.742 7.077-4.073 14.932-6.108 22.787-6.108 8.144 0 16.221 2.169 23.455 6.476l42.058 25.246 79.643-79.609c-0.090-0.167-0.157-0.322-0.245-0.511l-24.812-41.336c-8.544-14.242-8.678-31.988-0.333-46.341 17.067-29.44 30.175-60.962 38.964-93.751 4.273-16.010 16.889-28.416 32.957-32.445l47.154-11.76v-112.61zM511.626 676.68c-125.862 0-227.87-102.041-227.87-227.869 0-125.861 102.007-227.869 227.87-227.869s227.87 102.008 227.87 227.869c0 125.829-102.008 227.869-227.87 227.869zM511.626 266.515c-100.671 0-182.296 81.612-182.296 182.296 0 100.671 81.624 182.296 182.296 182.296s182.295-81.624 182.295-182.296c0-100.683-81.623-182.296-182.295-182.296z" />
<glyph unicode="&#xe90b;" glyph-name="choose" d="M418.382 258.824l-144.961 144.96c-9.13 9.114-9.13 23.921 0 33.053s23.923 9.131 33.055 0l111.906-111.906 299.161 299.175c9.131 9.131 23.924 9.131 33.054 0s9.13-23.922 0-33.053l-332.215-332.228zM512.053-45.634v23.374l-0.035-23.374c-273.139 0-495.374 222.205-495.392 495.364 0 273.143 222.226 495.368 495.373 495.368 273.149 0 495.374-222.225 495.374-495.368 0-273.158-222.199-495.364-495.32-495.364zM511.999 898.349c-247.371 0-448.623-201.252-448.623-448.619 0.018-247.373 201.279-448.615 448.642-448.615h0.035c247.346 0 448.569 201.242 448.569 448.615 0 247.366-201.251 448.619-448.623 448.619z" />
<glyph unicode="&#xe90c;" glyph-name="choose-select" d="M511.999 945.098c-273.147 0-495.373-222.225-495.373-495.368 0.018-273.159 222.252-495.364 495.392-495.364l0.035 23.374v-23.374c273.12 0 495.32 222.205 495.32 495.364 0 273.143-222.226 495.368-495.374 495.368zM750.596 591.052l-332.216-332.229-144.961 144.961c-9.13 9.114-9.13 23.921 0 33.052s23.923 9.131 33.055 0l111.906-111.907 299.161 299.175c9.131 9.131 23.924 9.131 33.054 0s9.131-23.921 0-33.052z" />
<glyph unicode="&#xe90d;" glyph-name="strikeout" d="M514.432 936.311c-271.118 0-490.898-219.791-490.898-490.896 0-271.118 219.78-490.896 490.898-490.896 271.116 0 490.893 219.778 490.893 490.896 0 271.105-219.776 490.896-490.893 490.896zM514.432-0.855c-246.452 0-446.271 199.785-446.271 446.27 0 246.45 199.819 446.268 446.271 446.268 246.471 0 446.268-199.818 446.268-446.268 0-246.485-199.796-446.27-446.268-446.27zM545.98 445.415l95.792 95.791c4.052 4.043 6.538 9.62 6.538 15.776 0 12.322-9.981 22.313-22.317 22.313-6.165 0-11.742-2.495-15.774-6.538l-95.793-95.791-95.79 95.791c-4.031 4.043-9.611 6.538-15.776 6.538-12.333 0-22.313-9.991-22.313-22.313 0-6.156 2.483-11.733 6.538-15.776l95.79-95.791-95.791-95.792c-4.055-4.021-6.538-9.599-6.538-15.777 0-12.322 9.981-22.314 22.313-22.314 6.166 0 11.746 2.496 15.776 6.538l95.79 95.802 95.793-95.802c4.052-4.042 9.608-6.538 15.774-6.538 12.336 0 22.317 9.992 22.317 22.314 0 6.178-2.486 11.756-6.538 15.777l-95.792 95.792z" />
<glyph unicode="&#xe90e;" glyph-name="location" d="M524.116 949.468c-201.082 0-364.115-163.035-364.115-364.115 0-295.844 364.115-637.203 364.115-637.203s364.115 341.359 364.115 637.203c0 201.081-163.034 364.116-364.115 364.116zM524.116 16.42c0 0-318.601 295.844-318.601 568.932 0 175.969 142.644 318.601 318.601 318.601s318.601-142.632 318.601-318.601c0-273.087-318.601-568.932-318.601-568.932zM524.116 767.41c-100.563 0-182.058-81.517-182.058-182.058s81.495-182.058 182.058-182.058 182.058 81.517 182.058 182.058c0 100.541-81.495 182.058-182.058 182.058zM524.116 448.808c-75.416 0-136.543 61.137-136.543 136.543 0 75.384 61.127 136.543 136.543 136.543s136.543-61.16 136.543-136.543c0-75.405-61.127-136.543-136.543-136.543z" />
<glyph unicode="&#xe90f;" glyph-name="direction-right" d="M1006.268 462.659l-320.458 320.457c-4.115 4.114-9.806 6.67-16.099 6.67-12.586 0-22.769-10.184-22.769-22.769 0-6.293 2.556-11.986 6.67-16.099l281.587-281.589h-901.366c-12.585 0-22.77-10.185-22.77-22.769s10.184-22.77 22.77-22.77h901.366l-278.707-278.707c-4.115-4.135-6.67-9.807-6.67-16.1 0-12.585 10.184-22.769 22.77-22.769 6.293 0 11.985 2.536 16.099 6.671l317.577 317.576c4.135 4.115 6.67 9.807 6.67 16.1s-2.533 11.963-6.669 16.099z" />
<glyph unicode="&#xe910;" glyph-name="direction-left" d="M17.732 462.659c-4.136-4.137-6.669-9.807-6.669-16.1s2.534-11.985 6.671-16.1l317.577-317.576c4.113-4.135 9.805-6.671 16.098-6.671 12.586 0 22.77 10.184 22.77 22.769 0 6.293-2.555 11.964-6.671 16.1l-278.707 278.707h901.366c12.586 0 22.77 10.184 22.77 22.77 0 12.585-10.184 22.769-22.77 22.769h-901.366l281.588 281.589c4.115 4.113 6.671 9.805 6.671 16.099 0 12.586-10.184 22.769-22.769 22.769-6.293 0-11.985-2.555-16.099-6.67l-320.459-320.457z" />
<glyph unicode="&#xe911;" glyph-name="star-full" d="M1011.242 579.649h-363.958l-136.482 363.957-136.485-363.957h-363.957l295.715-227.496-136.484-409.429 341.211 250.221 341.209-250.221-136.483 409.429z" />
<glyph unicode="&#xe912;" glyph-name="star" d="M1011.242 579.649h-363.958l-136.483 363.957-136.484-363.957h-363.957l295.716-227.496-136.484-409.429 341.211 250.221 341.21-250.221-136.484 409.429 295.715 227.496zM763.643 63.947l-252.842 185.389-252.842-185.389 101.519 304.556-215.345 165.652h261.728l11.041 29.524 93.899 250.353 104.962-279.877h261.728l-215.368-165.652 101.519-304.556z" />
<glyph unicode="&#xe913;" glyph-name="search" d="M369.717 221.048c-46.918 0-92.659 8.902-135.956 26.458-44.837 18.181-85.058 44.884-119.544 79.366-34.481 34.481-61.181 74.695-79.361 119.528-17.554 43.291-26.455 89.030-26.455 135.945s8.901 92.654 26.455 135.947c18.18 44.834 44.88 85.052 79.359 119.535 34.487 34.488 74.708 61.194 119.545 79.377 43.296 17.558 89.039 26.461 135.957 26.461s92.661-8.903 135.957-26.461c44.837-18.183 85.058-44.889 119.544-79.376 34.486-34.482 61.192-74.7 79.375-119.534 17.558-43.293 26.462-89.034 26.462-135.949s-8.903-92.654-26.462-135.946c-18.183-44.833-44.89-85.048-79.377-119.528-34.486-34.482-74.707-61.184-119.543-79.365-43.297-17.557-89.039-26.458-135.957-26.458zM369.717 896.841c-84.005 0-162.985-32.717-222.391-92.123-122.608-122.621-122.608-322.128 0-444.735 59.405-59.399 138.386-92.111 222.391-92.111s162.986 32.713 222.392 92.112c59.405 59.391 92.121 138.361 92.121 222.36s-32.716 162.974-92.121 222.373c-59.408 59.408-138.387 92.124-222.392 92.124zM679.545 246.718c-5.993 0-11.985 2.286-16.557 6.86l-66.389 66.405c-9.142 9.144-9.14 23.968 0.004 33.111s23.968 9.14 33.111-0.004l66.389-66.405c9.142-9.144 9.14-23.968-0.004-33.111-4.571-4.57-10.563-6.856-16.553-6.856zM913.46-54.744c-5.991 0-11.984 2.286-16.555 6.857l-261.899 261.899c-9.143 9.143-9.143 23.967 0 33.111l70.043 70.043c4.39 4.39 10.346 6.857 16.555 6.857s12.164-2.467 16.555-6.857l261.899-261.899c9.143-9.143 9.143-23.967 0-33.111l-70.043-70.043c-4.572-4.571-10.563-6.857-16.555-6.857zM684.67 230.568l228.789-228.789 36.933 36.933-228.789 228.789-36.933-36.933z" />
<glyph unicode="&#xe914;" glyph-name="property" d="M196.774 364.165h-125.753c-11.563 0-20.959-9.395-20.959-20.959v-251.506c0-11.595 9.395-20.958 20.959-20.958h125.753c11.564 0 20.959 9.364 20.959 20.958v251.506c0 11.563-9.396 20.959-20.959 20.959zM175.815 112.659h-83.835v209.588h83.835v-209.588zM699.785 489.918h-125.753c-11.563 0-20.959-9.396-20.959-20.959v-377.258c0-11.595 9.395-20.958 20.959-20.958h125.753c11.563 0 20.959 9.364 20.959 20.958v377.258c0 11.564-9.395 20.959-20.959 20.959zM678.826 112.659h-83.835v335.341h83.835v-335.341zM448.279 741.423h-125.753c-11.563 0-20.959-9.395-20.959-20.959v-628.765c0-11.595 9.396-20.958 20.959-20.958h125.753c11.563 0 20.959 9.364 20.959 20.958v628.764c0 11.564-9.395 20.959-20.959 20.959zM427.321 112.659h-83.836v586.847h83.836v-586.847zM951.291 825.258h-125.753c-11.563 0-20.959-9.395-20.959-20.958v-712.6c0-11.595 9.395-20.958 20.959-20.958h125.753c11.563 0 20.959 9.364 20.959 20.958v712.6c0 11.563-9.395 20.958-20.959 20.958zM930.332 112.659h-83.835v670.682h83.835v-670.682z" />
<glyph unicode="&#xe915;" glyph-name="praise" d="M248.798-37.311h-140.188c-17.911 0-72.458 0-72.458 53.551l-18.908 417.904c0 54.426 54.546 54.426 72.458 54.426h121.795c14.089 0 50.927 0 65.699-26.285 67.214 57.99 126.745 248.458 126.745 296.522 0 8.882-0.517 18.946-1.034 29.535-2.235 45.221-4.782 96.462 22.749 125.378 12.334 13.009 29.027 19.591 49.597 19.591 78.884 0 127.040-80.157 133.835-159.363 7.202-84.1 6.241-146.198-2.806-185.317h294.815c58.275 0 105.657-47.409 105.657-105.685 0-36.663-19.149-68.911-48.748-86.177 8.438-16 13.054-33.755 13.054-51.149 0-42.636-26.424-78.828-63.281-93.028 9.121-16.452 14.2-35.019 14.2-53.217 0-38.187-20.145-71.148-51.61-87.941 1.662-7.507 2.51-15.067 2.51-22.611v-4.727c0-52.774-42.948-95.696-95.722-95.696h-415.871c-14.698 0-29.175 3.554-42.396 10.175-10.673-35.886-54.416-35.886-70.094-35.886zM89.703 450.752c-34.641 0-34.641-7.662-34.641-15.751l18.908-417.912c0-8.947 0-16.583 34.641-16.583h140.188c34.64 0 34.64 7.636 34.64 15.734v68.081l33.016-37.023c11.966-13.386 28.288-21.077 44.833-21.077h415.873c31.907 0 57.907 25.962 57.907 57.879v4.727c0 8.586-1.865 17.662-5.355 26.303l-7.736 19.13 19.72 6.048c25.389 7.793 42.47 30.884 42.47 57.465 0 20.422-8.439 39.958-22.565 53.836l-32 31.427 44.833 0.96c32.424 0.702 58.811 27.635 58.811 60.040 0 18.133-6.554 35.416-18.021 48.951l-19.167 22.657 28.621 7.802c26.091 7.109 44.26 30.92 44.26 57.916 0 39.008-30.412 69.457-67.841 69.457h-352.464l14.514 27.678c6.389 12.197 19.979 55.35 8.254 192.222-4.302 50.16-33.441 124.778-96.147 124.778-13.221 0-19.019-4.469-22.233-7.829-16.323-17.191-14.015-63.575-12.334-97.44 0.553-11.264 1.070-21.964 1.070-31.418 0-62.043-72.771-292.442-161.755-340.451l-4.211-2.261h-30.172v18.908c0 8.356 0 15.75-34.124 15.75l-121.794-0.001z" />
<glyph unicode="&#xe916;" glyph-name="plus" d="M53.208 464.356h917.584v-32.712h-917.584v32.712zM495.644 906.792h32.712v-917.584h-32.712v917.584z" />
<glyph unicode="&#xe917;" glyph-name="person" d="M1015.5-9.572h-1003.045v87.589c0 150.241 118.119 272.455 263.301 272.455h476.443c145.183 0 263.301-122.213 263.301-272.455v-87.589zM62.663 42.377h902.629v35.639c0 121.578-95.612 220.505-213.093 220.505h-476.443c-117.48 0-213.093-98.927-213.093-220.505v-35.639zM513.977 360.135c-145.207 0-263.326 122.212-263.326 272.429 0 150.243 118.118 272.455 263.326 272.455s263.326-122.213 263.326-272.455c0-150.216-118.117-272.429-263.326-272.429zM513.977 853.071c-117.504 0-213.117-98.927-213.117-220.506s95.613-220.481 213.117-220.481c117.505 0 213.116 98.903 213.116 220.481s-95.611 220.506-213.116 220.506z" />
<glyph unicode="&#xe918;" glyph-name="notes" d="M590.997 212.079h-257.369c-11.854 0-21.447-9.615-21.447-21.448 0-11.865 9.593-21.447 21.447-21.447h257.37c11.855 0 21.448 9.582 21.448 21.447 0 11.834-9.594 21.448-21.448 21.448zM333.627 683.921h107.238c11.856 0 21.447 9.584 21.447 21.448 0 11.833-9.592 21.447-21.447 21.447h-107.238c-11.854 0-21.447-9.614-21.447-21.447 0-11.865 9.593-21.448 21.447-21.448zM719.682 383.658h-386.054c-11.854 0-21.447-9.615-21.447-21.448 0-11.865 9.593-21.447 21.447-21.447h386.054c11.855 0 21.447 9.582 21.447 21.447 0 11.834-9.593 21.448-21.447 21.448zM312.18 533.79c0-11.865 9.593-21.447 21.447-21.447h386.054c11.855 0 21.447 9.582 21.447 21.447 0 11.834-9.593 21.447-21.447 21.447h-386.055c-11.854 0-21.447-9.614-21.447-21.447zM698.235 919.843h-471.844c-47.376 0-85.79-38.413-85.79-85.79v-772.107c0-47.388 38.413-85.791 85.79-85.791h600.528c47.378 0 85.789 38.404 85.789 85.791v621.975l-214.473 235.922zM869.813 61.947c0-23.71-19.226-42.895-42.894-42.895h-600.528c-23.709 0-42.894 19.186-42.894 42.895v772.106c0 23.666 19.185 42.895 42.894 42.895h386.055v-214.475c0-23.678 19.226-42.895 42.894-42.895h214.473v-557.632zM655.34 662.474v214.475h21.447l193.027-214.475h-214.474z" />
<glyph unicode="&#xe919;" glyph-name="message" d="M905.572 928.957h-785.083c-48.173 0-87.24-39.060-87.24-87.233v-591.924c0-48.179 39.067-87.233 87.24-87.233h91.138v-202.915l198.307 202.915h495.637c48.18 0 87.234 39.053 87.234 87.233v591.924c0 48.173-39.053 87.233-87.233 87.233zM286.551 621.44c37.507 0 67.94-30.434 67.94-67.947 0-37.527-30.433-67.94-67.94-67.94-37.52 0-67.947 30.413-67.947 67.94 0 37.513 30.427 67.947 67.947 67.947zM513.030 485.553c-37.514 0-67.94 30.413-67.94 67.94 0 37.513 30.427 67.947 67.94 67.947s67.939-30.434 67.939-67.947c0-37.527-30.426-67.94-67.939-67.94zM739.508 485.553c-37.506 0-67.939 30.413-67.939 67.94 0 37.513 30.433 67.947 67.939 67.947 37.514 0 67.947-30.434 67.947-67.947-0.001-37.527-30.434-67.94-67.947-67.94z" />
<glyph unicode="&#xe91a;" glyph-name="mapmark" d="M511.705 930.301c-161.38 0-292.197-130.851-292.197-292.214 0-83.807 35.459-159.162 91.958-212.438l199.164-459.95 197.719 456.712c58.559 53.418 95.55 130.146 95.55 215.678 0.001 161.362-130.814 292.213-292.194 292.213z" />
<glyph unicode="&#xe91b;" glyph-name="lock" d="M512 356.865c-50.329 0-91.136-40.808-91.136-91.136 0-23.407 9.078-44.523 23.563-60.654-0.29-2.559-0.779-5.085-0.779-7.699 0-37.759 30.594-68.351 68.352-68.351s68.352 30.593 68.352 68.351c0 2.615-0.489 5.139-0.778 7.699 14.484 16.153 23.563 37.246 23.563 60.654-0.001 50.328-40.808 91.136-91.137 91.136zM534.784 226.468v-29.093c0-12.605-10.212-22.784-22.784-22.784s-22.784 10.179-22.784 22.784v29.093c-13.573 7.899-22.784 22.438-22.784 39.26 0 25.144 20.425 45.567 45.568 45.567s45.568-20.424 45.568-45.567c0-16.822-9.233-31.385-22.784-39.26zM785.409 539.137v136.704c0 150.989-122.419 273.409-273.409 273.409s-273.409-122.419-273.409-273.409v-136.704c-50.328 0-91.136-40.808-91.136-91.136v-410.114c0-50.341 40.808-91.136 91.136-91.136h546.818c50.329 0 91.136 40.796 91.136 91.136v410.113c0 50.329-40.807 91.137-91.137 91.137zM284.159 675.841c0 125.813 101.995 227.841 227.841 227.841s227.841-102.028 227.841-227.841v-136.704h-455.682v136.704zM830.976 37.886c0-25.154-20.425-45.568-45.568-45.568h-546.817c-25.143 0-45.568 20.414-45.568 45.568v410.114c0 25.144 20.424 45.568 45.568 45.568h546.818c25.143 0 45.568-20.425 45.568-45.568v-410.114z" />
<glyph unicode="&#xe91c;" glyph-name="keyboard" d="M293.229 363.465h435.541v-96.788h-435.541v96.788zM390.017 511.147h96.787v-96.787h-96.787v96.787zM535.197 511.147h96.788v-96.787h-96.788v96.787zM680.379 511.147h96.786v-96.787h-96.786v96.787zM244.835 511.147h96.787v-96.788h-96.787v96.788zM390.017 658.829h96.787v-96.787h-96.787v96.787zM535.197 658.829h96.788v-96.787h-96.788v96.787zM680.379 658.829h96.786v-96.787h-96.786v96.787zM244.835 658.829h96.787v-96.788h-96.787v96.788zM512 938.245c-273.315 0-494.873-221.56-494.873-494.873s221.558-494.872 494.873-494.872c273.312 0 494.873 221.558 494.873 494.872s-221.561 494.873-494.873 494.873zM512-6.511c-248.47 0-449.885 201.415-449.885 449.885 0 248.447 201.415 449.885 449.885 449.885 248.467 0 449.885-201.438 449.885-449.885 0-248.47-201.417-449.885-449.885-449.885z" />
<glyph unicode="&#xe91d;" glyph-name="eye" d="M512 516.715c-37.937 0-68.715-30.779-68.715-68.715 0-37.959 30.779-68.715 68.715-68.715s68.716 30.756 68.716 68.715c0 37.937-30.779 68.715-68.716 68.715zM512 677.005c-126.514 0-229.050-102.536-229.050-229.005 0-126.514 102.536-229.050 229.050-229.050s229.051 102.535 229.051 229.050c0 126.469-102.536 229.005-229.051 229.005zM512 264.76c-101.193 0-183.24 82.003-183.24 183.24 0 101.193 82.048 183.24 183.24 183.24s183.24-82.048 183.24-183.24c0-101.238-82.047-183.24-183.24-183.24zM512 768.671c-278.305 0-503.911-229.050-503.911-320.671s225.605-320.67 503.911-320.67 503.91 229.050 503.91 320.67c0 91.62-225.605 320.671-503.91 320.671zM512 173.139c-252.984 0-458.101 196.303-458.101 274.861 0 78.534 205.116 274.861 458.101 274.861 253.006 0 458.101-196.326 458.101-274.861 0-78.557-205.094-274.861-458.101-274.861z" />
<glyph unicode="&#xe91e;" glyph-name="express" d="M638.644 512.611c0-22.978 18.621-41.6 41.6-41.6 22.976 0 41.599 18.623 41.599 41.6s-18.622 41.599-41.599 41.599c-22.979 0-41.6-18.622-41.6-41.599zM512.5 939.245c-273.315 0-494.873-221.56-494.873-494.873s221.558-494.872 494.873-494.872c273.312 0 494.873 221.558 494.873 494.872s-221.561 494.873-494.873 494.873zM512.5-5.511c-248.47 0-449.885 201.415-449.885 449.884 0 248.447 201.415 449.885 449.885 449.885 248.467 0 449.885-201.438 449.885-449.885 0-248.469-201.417-449.884-449.885-449.884zM426.99 512.611c0 5.636-2.894 10.397-7.067 13.544l0.177 0.236-137.839 103.378-0.177-0.236c-2.877 2.154-6.284 3.685-10.162 3.685-9.507 0-17.23-7.723-17.23-17.23 0-5.636 2.877-10.406 7.066-13.545l-0.176-0.252 119.456-89.581-119.456-89.599 0.176-0.236c-4.19-3.147-7.066-7.926-7.066-13.545 0-9.532 7.723-17.23 17.23-17.23 3.877 0 7.269 1.514 10.162 3.684l0.177-0.236 137.839 103.361-0.177 0.236c4.173 3.156 7.068 7.926 7.068 13.563zM578.438 308.212h-131.878c-9.507 0-17.229-7.723-17.229-17.231 0-9.532 7.724-17.23 17.23-17.23h131.878c9.507 0 17.231 7.697 17.231 17.23 0 9.507-7.723 17.231-17.231 17.231z" />
<glyph unicode="&#xe91f;" glyph-name="clock" d="M513.361 946.418c-274.074 0-496.25-222.187-496.25-496.25 0-274.074 222.177-496.25 496.25-496.25s496.25 222.176 496.25 496.25c0 274.063-222.177 496.25-496.25 496.25zM513.361-0.968c-249.137 0-451.137 201.966-451.137 451.137 0 249.138 202 451.137 451.137 451.137 249.16 0 451.136-201.999 451.136-451.137 0-249.17-201.975-451.137-451.136-451.137zM535.934 460.651v349.865c0 12.468-10.111 22.556-22.557 22.557-12.478 0-22.589-10.089-22.589-22.557v-349.865c0-12.468 10.111-22.556 22.589-22.556 12.446 0 22.557 10.088 22.557 22.556zM727.62 273.893l-198.305 198.304c-8.816 8.817-23.099 8.801-31.9 0-8.825-8.825-8.84-23.107-0.024-31.923l198.305-198.304c8.816-8.817 23.099-8.802 31.923 0.023 8.8 8.8 8.816 23.083 0 31.899z" />
<glyph unicode="&#xe920;" glyph-name="cap" d="M1006 603.369c0 8.844-5.245 16.322-12.723 19.899l0.066 0.13-0.649 0.26c-0.218 0.087-0.433 0.173-0.629 0.238l-464.894 176.936c-2.883 1.387-6.047 2.297-9.471 2.297s-6.567-0.91-9.471-2.297l-0.065 0.13-464.806-177.065c-0.218-0.065-0.434-0.151-0.629-0.238l-0.672-0.26 0.066-0.13c-7.478-3.577-12.724-11.055-12.724-19.899s5.246-16.321 12.724-19.897l-0.066-0.129 0.672-0.26c0.195-0.086 0.412-0.152 0.629-0.238l41.66-15.889-28.136-211.117c-16.126-6.633-27.484-22.499-27.484-41.010 0-24.514 19.854-44.39 44.391-44.39 24.494 0 44.392 19.876 44.392 44.39 0 14.284-6.849 26.835-17.341 34.963l26.791 200.929 74.585-28.416-39.449-315.507 0.39-0.086c-0.152-0.954-0.585-1.822-0.585-2.862 0-12.268 9.928-22.196 22.196-22.196 1.69 0 3.166 0.521 4.726 0.89l0.087-0.369 167.074 41.789 147.738-126.648 0.218 0.282c3.726-2.775 8.107-4.726 13.091-4.726 4.552 0 8.563 1.713 12.095 4.075l0.218-0.346 170.086 127.56 167.918-41.986 0.087 0.433c1.56-0.346 3.056-0.954 4.725-0.954 12.269 0 22.195 9.928 22.195 22.196 0 1.431-0.476 2.688-0.714 4.032l0.324 0.066-59.086 315.267 156.518 59.63c0.196 0.087 0.41 0.152 0.629 0.238l0.649 0.26-0.066 0.129c7.479 3.577 12.724 11.055 12.724 19.898zM844.649 233.761l-144.574 36.154-0.087-0.433c-1.56 0.346-3.034 0.953-4.726 0.953-4.552 0-8.561-1.69-12.094-4.074l-0.217 0.346-164.342-123.247-142.971 122.553-0.217-0.326c-3.706 2.797-8.085 4.747-13.092 4.747-1.668 0-3.164-0.606-4.724-0.953l-0.088 0.433-146.697-36.675 34.094 272.806 263.313-100.141c2.904-1.386 6.046-2.298 9.471-2.298 3.426 0 6.589 0.911 9.471 2.298l0.066-0.129 266.13 101.375 51.285-273.391zM517.698 449.475l-403.941 153.894 403.942 153.895 403.965-153.895-403.965-153.894z" />
<glyph unicode="&#xe921;" glyph-name="camera" d="M510.82 602.637c-102.783 0-186.119-83.335-186.119-186.118s83.336-186.12 186.12-186.12c102.783 0 186.118 83.337 186.118 186.12s-83.335 186.118-186.118 186.118zM510.82 276.928c-77.087 0-139.589 62.48-139.589 139.59 0 77.076 62.502 139.589 139.589 139.589 77.11 0 139.589-62.512 139.589-139.589-0.001-77.11-62.48-139.59-139.589-139.59zM836.528 695.697h-93.059c-69.794 0-69.794 93.060-162.855 93.060h-139.589c-93.059 0-93.059-93.060-162.854-93.060h-93.059c-51.392 0-93.060-41.668-93.060-93.060v-418.767c0-51.413 41.668-93.059 93.060-93.059h651.416c51.39 0 93.058 41.645 93.058 93.059v418.767c0 51.392-41.668 93.060-93.058 93.060zM883.056 183.87c0-25.684-20.856-46.529-46.529-46.529h-651.416c-25.673 0-46.53 20.845-46.53 46.529v418.767c0 25.673 20.856 46.529 46.529 46.529h93.060c93.060 0 93.060 93.060 162.854 93.060h139.588c69.794 0 69.794-93.060 162.855-93.060h93.059c25.673 0 46.529-20.856 46.529-46.529v-418.767z" />
<glyph unicode="&#xe922;" glyph-name="bell" d="M777.21 50.025c89.826 132.941-62.107 235.599 66.216 425.515 53.009 78.452 50.907 177.932 2.596 252.756 4.298 4.242 8.269 8.96 11.778 14.154 28.346 41.952 17.315 98.949-24.638 127.296-41.952 28.346-98.948 17.314-127.294-24.638-3.51-5.193-6.405-10.638-8.737-16.208-87.447 16.904-180.528-18.263-233.536-96.715-128.324-189.916-280.256-87.258-370.082-220.198-39.154-57.949 23.114-171.608 143.767-279.661-1.915-2.394-3.939-4.671-5.694-7.268-42.532-62.947-25.972-148.424 36.956-190.943 62.91-42.507 148.411-25.991 190.943 36.956 1.755 2.596 3.112 5.325 4.618 7.995 145.266-71.625 273.952-86.99 313.108-29.042zM807.497 831.762c20.957-14.16 26.479-42.69 12.318-63.648-14.167-20.967-42.691-26.479-63.648-12.319s-26.486 42.681-12.318 63.648c14.161 20.957 42.691 26.48 63.648 12.319zM256.546 552.134c73.448 15.909 164.867 35.745 245.031 154.387 42.895 63.485 118.846 91.452 189.582 76.681 2.995-25.593 16.309-49.825 39.344-65.389s50.486-18.876 75.328-12.093c40.097-60.117 42.506-141.030-0.389-204.515-80.164-118.642-64.459-210.861-51.815-284.94 2.389-14.135 4.63-27.252 6.086-39.73-59.755-10.033-184.106 37.371-311.521 123.463-127.284 86.004-217.842 183.702-230.971 242.913 12.175 3.306 25.212 6.169 39.323 9.223zM294.206 72.099c-41.952 28.346-52.989 85.333-24.637 127.295 0.777 1.15 1.738 2.053 2.577 3.175 22.91-18.628 47.349-36.909 73.388-54.504 26.040-17.595 52.12-33.448 77.951-47.754-0.728-1.197-1.207-2.426-1.984-3.575-28.353-41.962-85.343-52.984-127.296-24.637zM371.2 186.048c-196.629 132.859-261.483 268.041-239.704 300.274 13.804 20.43 29.558 33.192 47.589 42.363 24.026-76.624 115.122-179.966 243.445-266.671 128.379-86.743 258.216-132.628 338.241-126.256-1.764-20.162-7.715-39.602-21.543-60.069-21.779-32.233-171.433-22.475-368.026 110.359z" />
<glyph unicode="&#xe923;" glyph-name="backtop" d="M847.056 477.529l-306.493 306.493c-5.567 5.536-13.231 8.978-21.67 8.978-8.441 0-16.103-3.443-21.671-8.978l-306.492-306.493c-5.566-5.537-8.978-13.2-8.978-21.671 0-16.94 13.738-30.65 30.649-30.65 8.441 0 16.103 3.413 21.671 8.979l254.173 254.175v-559.185c0-16.94 13.736-30.649 30.649-30.649s30.649 13.709 30.649 30.649v559.185l254.173-254.175c5.568-5.566 13.23-8.979 21.672-8.979 16.911 0 30.649 13.709 30.649 30.649-0.001 8.471-3.413 16.134-8.979 21.671z" />
<glyph unicode="&#xe924;" glyph-name="review" d="M289.569 548.892c-37.598 0-68.103-30.515-68.103-68.103 0-37.621 30.505-68.103 68.103-68.103s68.103 30.482 68.103 68.103c0 37.587-30.505 68.102-68.103 68.102zM516.578 548.892c-37.599 0-68.103-30.515-68.103-68.103 0-37.621 30.504-68.103 68.103-68.103s68.103 30.482 68.103 68.103c0 37.587-30.504 68.102-68.103 68.102zM516.578 889.406c-275.826 0-499.421-182.971-499.421-408.617 0-110.701 54.003-210.949 141.37-284.516l-50.566-214.905 268.51 107.375c44.493-10.585 91.425-16.571 140.107-16.571 275.826 0 499.422 182.916 499.422 408.618 0 225.646-223.595 408.617-499.422 408.617zM516.578 117.573c-43.274 0-86.858 5.165-129.554 15.363-3.481 0.821-7.028 1.231-10.553 1.231-5.741 0-11.483-1.074-16.849-3.247l-187.459-74.986 30.548 129.944c3.946 16.659-1.862 34.095-14.941 45.102-80.74 67.991-125.21 156.735-125.21 249.811 0 200.263 203.688 363.215 454.019 363.215 250.355 0 454.021-162.952 454.021-363.215 0-200.276-203.666-363.216-454.021-363.216zM743.588 548.892c-37.598 0-68.103-30.515-68.103-68.103 0-37.621 30.505-68.103 68.103-68.103s68.102 30.482 68.102 68.103c0 37.587-30.504 68.102-68.102 68.102z" />
<glyph unicode="&#xe925;" glyph-name="add-out" d="M514.432 936.311c-271.118 0-490.898-219.791-490.898-490.896 0-271.118 219.78-490.896 490.898-490.896 271.116 0 490.893 219.778 490.893 490.896 0 271.105-219.776 490.896-490.893 490.896zM514.432-0.855c-246.452 0-446.271 199.785-446.271 446.27 0 246.45 199.819 446.268 446.271 446.268 246.471 0 446.268-199.818 446.268-446.268 0-246.485-199.796-446.27-446.268-446.27zM536.74 423.105l135.469-0.001c5.723-0.007 11.426 2.179 15.779 6.532 8.713 8.714 8.721 22.836-0.002 31.558-4.36 4.36-10.068 6.539-15.777 6.531l-135.47 0.002v135.468c0.009 5.709-2.173 11.419-6.533 15.779-8.721 8.721-22.843 8.713-31.556 0-4.353-4.353-6.541-10.053-6.532-15.779v-135.469h-135.469c-5.71 0.024-11.411-2.164-15.779-6.533-8.714-8.714-8.721-22.836 0-31.556 4.36-4.361 10.070-6.541 15.779-6.534l135.476 0.009-0.007-135.478c0.007-5.722 2.171-11.416 6.531-15.776 8.723-8.722 22.845-8.715 31.559-0.001 4.368 4.367 6.554 10.071 6.533 15.779v135.47z" />
<glyph unicode="&#xe926;" glyph-name="add" d="M539.957 425.552h409.279c6.207-0.016 12.398 2.359 17.132 7.094 9.453 9.453 9.471 24.796 0.002 34.265-4.72 4.719-10.925 7.078-17.143 7.087h-409.276l-0.001 412.462c0.009 6.2-2.351 12.407-7.086 17.142-9.47 9.47-24.813 9.453-34.267-0.001-4.735-4.735-7.109-10.925-7.11-17.148l0.016-412.445-421.697-0.008c-6.207 0.016-12.397-2.358-17.124-7.085-9.479-9.479-9.469-24.795 0.001-34.265 4.735-4.736 10.933-7.104 17.132-7.095h421.689l-0.002-426.019c0.010-6.217 2.377-12.414 7.096-17.134 9.469-9.469 24.785-9.479 34.264 0 4.726 4.726 7.101 10.917 7.086 17.124l0.008 426.027z" />
<glyph unicode="&#xe927;" glyph-name="woman" d="M541.167 386.923c102.594 14.212 181.608 102.214 181.608 208.72 0 116.409-94.365 210.774-210.774 210.774-116.404 0-210.775-94.365-210.775-210.774 0-106.507 79.014-194.509 181.613-208.72v-101.477h-136.536v-58.323h136.536v-136.542h58.328v136.542h136.537v58.323h-136.537v101.477zM359.553 595.644c0 84.192 68.248 152.446 152.447 152.446 84.192 0 152.452-68.254 152.452-152.446s-68.26-152.447-152.452-152.447c-84.199 0-152.447 68.254-152.447 152.447z" />
<glyph unicode="&#xe928;" glyph-name="man" d="M254.695 444.884c-70.32-105.919-41.463-248.782 64.45-319.096 105.925-70.316 248.788-41.456 319.102 64.46 64.337 96.907 45.604 224.708-39.169 299.608l129.189 194.589 17.043-84.403 62.439 12.613-29.66 146.835 0.005 0.006-8.923 44.152-190.994-38.584 12.619-62.433 84.395 17.052-129.177-194.591c-101.941 49.044-226.995 16.7-291.319-80.208zM585.177 225.479c-50.858-76.607-154.188-97.476-230.792-46.622-76.61 50.857-97.48 154.184-46.629 230.791 50.864 76.607 154.188 97.483 230.791 46.625 76.616-50.857 97.48-154.191 46.629-230.795z" />
<glyph unicode="&#xe929;" glyph-name="lock-open" d="M785.46 539.364v136.629c0 150.906-122.569 265.183-273.258 273.257-110.651 5.929-270.188-40.405-270.188-191.311 0-12.587 10.208-22.772 22.771-22.772s22.772 10.184 22.772 22.772c0 125.732 148.493 149.243 224.646 145.768 125.645-5.733 227.715-101.983 227.715-227.714v-136.63h-500.973c-50.302 0-91.086-40.782-91.086-91.085v-409.885c0-50.303 40.784-91.086 91.086-91.086h546.515c50.302 0 91.086 40.783 91.086 91.086v409.885c0 50.303-40.785 91.086-91.086 91.086zM831.003 38.393c0-25.174-20.414-45.543-45.543-45.543h-546.515c-25.129 0-45.543 20.369-45.543 45.543v409.885c0 25.128 20.414 45.543 45.543 45.543h546.515c25.129 0 45.543-20.414 45.543-45.543v-409.885zM512.202 357.193c-50.302 0-91.086-40.784-91.086-91.086 0-23.395 9.073-44.476 23.55-60.621-0.289-2.578-0.779-5.069-0.779-7.693 0-37.76 30.576-68.314 68.315-68.314s68.314 30.554 68.314 68.314c0 2.624-0.49 5.115-0.779 7.693 14.477 16.123 23.55 37.226 23.55 60.621 0 50.302-40.784 91.086-91.086 91.086zM534.973 226.88v-29.087c0-12.587-10.207-22.771-22.771-22.771s-22.772 10.184-22.772 22.771v29.087c-13.565 7.871-22.772 22.415-22.772 39.227 0 25.128 20.414 45.543 45.543 45.543s45.543-20.415 45.543-45.543c0-16.812-9.229-31.333-22.772-39.227z" />
<glyph unicode="&#xe92a;" glyph-name="calculator" d="M791.048 888.025h-557.659c-43.995 0-79.665-35.669-79.665-79.665v-716.99c0-43.996 35.67-79.667 79.665-79.667h557.658c43.995 0 79.666 35.67 79.666 79.667v716.99c0 43.996-35.67 79.665-79.665 79.665zM830.88 91.37c0-21.979-17.853-39.833-39.833-39.833h-557.659c-21.978 0-39.834 17.855-39.834 39.833v716.99c0 21.978 17.856 39.833 39.834 39.833h557.658c21.98 0 39.833-17.855 39.833-39.833v-716.99zM233.389 609.197h557.658v-39.852h-557.658v39.852zM233.389 469.801h143.149v-39.853h-143.149v39.853zM647.9 469.801h143.148v-39.853h-143.148v39.853zM440.644 469.801h143.149v-39.853h-143.149v39.853zM233.389 202.174h143.149v-39.851h-143.149v39.851zM647.9 202.174h143.148v-39.851h-143.148v39.851zM440.644 202.174h143.149v-39.851h-143.149v39.851zM233.389 335.987h143.149v-39.851h-143.149v39.851zM647.9 335.987h143.148v-39.851h-143.148v39.851zM440.644 335.987h143.149v-39.851h-143.149v39.851zM673.409 708.762c0 23.456 4.317 41.368 12.953 53.739 8.635 12.369 21.122 18.555 37.46 18.555 31.159 0 46.738-23.049 46.738-69.143 0-22.7-4.231-40.217-12.691-52.558-8.462-12.341-20.684-18.511-36.673-18.511-31.858 0-47.787 22.639-47.787 67.918zM702.029 709.462c0-31.276 6.681-46.913 20.043-46.913 13.129 0 19.692 16.104 19.692 48.313 0 32.326-6.389 48.489-19.167 48.489-13.713 0-20.569-16.63-20.569-49.889z" />
<glyph unicode="&#xe92b;" glyph-name="location-current" d="M512.021 917.194c-0.021 0-0.021 0.022-0.021 0.022s0-0.022-0.021-0.022c-259.122 0-469.195-210.093-469.195-469.195 0-259.144 210.073-469.216 469.216-469.216s469.216 210.072 469.216 469.216c0 259.101-210.072 469.195-469.195 469.195zM533.328 22.523v148.214c0 11.787-9.539 21.328-21.328 21.328s-21.328-9.541-21.328-21.328v-148.214c-218.487 10.83-393.36 185.683-404.19 404.149h148.255c11.789 0 21.328 9.559 21.328 21.328 0 11.788-9.539 21.328-21.328 21.328h-148.255c10.831 218.466 185.704 393.318 404.19 404.149v-148.213c0-11.79 9.539-21.328 21.328-21.328s21.328 9.539 21.328 21.328v148.213c218.487-10.831 393.361-185.683 404.192-404.149h-148.256c-11.788 0-21.327-9.539-21.327-21.328 0-11.769 9.539-21.328 21.327-21.328h148.256c-10.831-218.467-185.704-393.32-404.192-404.149zM512 554.64c-58.901 0-106.64-47.738-106.64-106.64s47.739-106.64 106.64-106.64c58.902 0 106.639 47.739 106.639 106.64s-47.737 106.64-106.639 106.64z" />
<glyph unicode="&#xe92c;" glyph-name="direction-top" d="M526.659 942.267c-4.136 4.136-9.807 6.669-16.099 6.669s-11.985-2.534-16.099-6.671l-317.576-317.577c-4.136-4.113-6.672-9.805-6.672-16.098 0-12.586 10.184-22.77 22.769-22.77 6.293 0 11.964 2.555 16.1 6.671l278.707 278.707v-901.366c0-12.586 10.185-22.77 22.77-22.77s22.769 10.184 22.769 22.77v901.365l281.589-281.588c4.114-4.115 9.806-6.671 16.099-6.671 12.586 0 22.769 10.184 22.769 22.769 0 6.293-2.556 11.985-6.67 16.099l-320.457 320.459z" />
<glyph unicode="&#xe92d;" glyph-name="direction-down" d="M497.34-46.267c4.137-4.136 9.806-6.669 16.099-6.669s11.985 2.534 16.1 6.67l317.575 317.577c4.135 4.114 6.672 9.806 6.672 16.098 0 12.586-10.184 22.77-22.769 22.77-6.293 0-11.965-2.556-16.1-6.672l-278.707-278.707v901.367c0 12.585-10.184 22.77-22.77 22.77-12.585 0-22.769-10.184-22.769-22.77v-901.365l-281.589 281.588c-4.114 4.115-9.805 6.67-16.099 6.67-12.586 0-22.769-10.184-22.769-22.769 0-6.293 2.555-11.985 6.67-16.099l320.457-320.459z" />
<glyph unicode="&#xe92e;" glyph-name="more" d="M217.712 534.916c-47.8 0-86.555-38.764-86.555-86.555 0-47.808 38.755-86.555 86.555-86.555 47.817 0 86.555 38.747 86.555 86.555 0 47.792-38.738 86.556-86.555 86.556zM512 534.916c-47.801 0-86.555-38.764-86.555-86.555 0-47.808 38.755-86.555 86.555-86.555 47.817 0 86.555 38.747 86.555 86.555 0 47.792-38.739 86.556-86.555 86.556zM806.288 534.916c-47.801 0-86.555-38.764-86.555-86.555 0-47.808 38.755-86.555 86.555-86.555 47.816 0 86.555 38.747 86.555 86.555 0.001 47.792-38.74 86.556-86.555 86.556z" />
<glyph unicode="&#xe92f;" glyph-name="close" d="M985.092 771.848h-664.392c-5.456 0-10.926-2.079-15.099-6.252l-271.796-271.796c-25.010-25.010-25.010-65.59 0-90.599l271.825-271.826c4.144-4.144 9.614-6.222 15.070-6.222h664.392c5.486 0 10.928 2.078 15.1 6.253 4.173 4.173 6.268 9.628 6.253 15.098v603.993c0.015 5.471-2.080 10.927-6.253 15.099-4.158 4.159-9.613 6.253-15.099 6.253zM963.74 167.856h-634.192l-265.545 265.544c-8.331 8.332-8.346 21.853 0 30.2l265.545 265.544h634.192v-561.288zM673.371 448.499l102.495 102.495c4.336 4.314 6.994 10.283 6.994 16.88 0 13.173-10.679 23.875-23.875 23.875-6.598 0-12.567-2.68-16.881-6.993l-102.494-102.496-102.495 102.496c-4.314 4.313-10.283 6.993-16.88 6.993-13.197 0-23.875-10.702-23.875-23.875 0-6.598 2.658-12.567 6.993-16.88l102.496-102.495-102.496-102.494c-4.336-4.313-6.993-10.283-6.993-16.881 0-13.197 10.679-23.875 23.875-23.875 6.597 0 12.567 2.658 16.88 6.993l102.495 102.495 102.494-102.495c4.337-4.335 10.283-6.993 16.881-6.993 13.197 0 23.875 10.678 23.875 23.875 0 6.597-2.659 12.567-6.994 16.881l-102.496 102.494z" />
<glyph unicode="&#xe930;" glyph-name="close-full" d="M1000.192 765.595c-4.157 4.158-9.613 6.252-15.099 6.252h-664.392c-5.456 0-10.927-2.079-15.099-6.252l-271.796-271.795c-25.010-25.010-25.010-65.59 0-90.599l271.825-271.826c4.144-4.144 9.615-6.222 15.070-6.222h664.392c5.486 0 10.927 2.078 15.099 6.254 4.173 4.173 6.268 9.628 6.253 15.098v603.992c0.015 5.471-2.080 10.927-6.253 15.099zM775.866 346.005c4.336-4.313 6.994-10.283 6.994-16.881 0-13.197-10.678-23.875-23.875-23.875-6.598 0-12.544 2.658-16.881 6.993l-102.494 102.495-102.495-102.495c-4.314-4.335-10.283-6.993-16.881-6.993-13.196 0-23.875 10.678-23.875 23.875 0 6.598 2.658 12.567 6.993 16.881l102.496 102.494-102.496 102.495c-4.336 4.314-6.993 10.282-6.993 16.88 0 13.173 10.678 23.875 23.875 23.875 6.598 0 12.567-2.68 16.881-6.993l102.495-102.496 102.494 102.496c4.314 4.313 10.283 6.993 16.881 6.993 13.197 0 23.875-10.702 23.875-23.875 0-6.598-2.658-12.567-6.994-16.88l-102.495-102.495 102.495-102.494z" />
<glyph unicode="&#xf3d0;" glyph-name="arrow-down" horiz-adv-x="640" d="M602 640l38-42-320-342-320 342 38 42 282-300z" />
<glyph unicode="&#xf3d2;" glyph-name="arrow-left" horiz-adv-x="384" d="M384 730l-300-282 300-282-42-38-342 320 342 320z" />
<glyph unicode="&#xf3d3;" glyph-name="arrow-right" horiz-adv-x="384" d="M0 730l42 38 342-320-342-320-42 38 300 282z" />
<glyph unicode="&#xf3d8;" glyph-name="arrow-up" horiz-adv-x="640" d="M602 256l-282 300-282-300-38 42 320 342 320-342z" />
</font>
</defs>
</svg>
